<svg xmlns="http://www.w3.org/2000/svg" aria-hidden="true" style="position:absolute;width:0;height:0;overflow:hidden">
  <defs>
    <symbol id="icon-favicon" viewBox="0 0 32 32">
      <path d="M15.451 6.42c.296.147.63.57.853.82 1.919 2.144 2.926 4.875 2.748 7.75-.172 2.782-1.546 5.252-3.608 7.078-.39-.267-.748-.647-1.06-1-1.752-1.981-2.712-4.765-2.545-7.406.172-2.723 1.564-5.447 3.611-7.242z"/>
      <path d="m23.621 10.313.017.029c.109.222.141.575.169.822.144 1.284.025 2.571-.427 3.787-1.128 3.037-3.736 5.273-6.619 6.598-.034 0-.011.002-.063-.028.176-.288.422-.546.625-.817.311-.423.593-.866.843-1.327.883-1.625 1.306-3.413 1.304-5.256 0-.524-.012-1.046-.164-1.552.27-.3.602-.553.923-.796 1.037-.784 2.081-1.33 3.391-1.461zM7.245 10.326c.156.006.313.026.466.05 1.184.18 2.221.811 3.146 1.541.258.204.541.416.735.684-.492 2.527.161 5.178 1.467 7.364.209.347.434.684.676 1.01.115.155.252.296.356.459l-.037.047c-2.155-.921-4.173-2.552-5.472-4.501-1.362-2.045-1.813-4.248-1.338-6.653z"/>
      <path d="M25.728 15.966c.344-.041 1.114-.084 1.402.099.015.043.019.048.02.1.006.201-.126.503-.194.691a8.036 8.036 0 0 1-2.272 3.365c-2.022 1.788-4.643 2.429-7.29 2.259-.5-.052-1.015-.087-1.496-.24 2.218-.682 4.327-2.076 5.855-3.816.376-.428.651-.925 1.017-1.355.694-.817 1.952-1.033 2.958-1.104zM4.543 16.034c1.033-.122 2.436.048 3.287.692.506.383.811 1.093 1.229 1.576a13.076 13.076 0 0 0 4.788 3.491c.392.168.796.343 1.211.445l-.829.139c-2.415.348-4.917-.084-6.982-1.427-1.407-.915-2.397-2.17-2.98-3.735-.085-.23-.213-.479-.257-.718a.41.41 0 0 1 .079-.35c.13-.096.299-.094.455-.113zM15.576 22.402c.42.149.843.269 1.283.34.759.123 1.641.087 2.323.483.504.292 1.019.976 1.162 1.543.026.104.019.113-.035.199-.527.19-1.039.145-1.564-.027-1.264-.413-2.551-1.334-3.17-2.538zM15.338 22.405c.027-.002.052.012.078.019-.001.012-.001.024-.004.036-.065.269-1.105 1.365-1.345 1.555-.83.655-2.062 1.176-3.133 1.048-.029-.006-.068-.014-.094-.026-.058-.027-.094-.048-.109-.11-.041-.168.055-.362.131-.507.245-.469.629-1.019 1.111-1.272.593-.312 1.469-.311 2.128-.428.422-.075.829-.19 1.239-.314z"/>
    </symbol>
  </defs>
</svg>
