<svg xmlns="http://www.w3.org/2000/svg" aria-hidden="true" style="position:absolute;width:0;height:0;overflow:hidden">
  <defs>
    <symbol id="icon-close-menu" viewBox="0 0 32 32">
      <path d="m21.589 8.459-5.657 5.656-5.656-5.656-1.885 1.885L14.047 16l-5.656 5.656 1.885 1.885 5.656-5.656 5.657 5.656 1.885-1.885L17.818 16l5.656-5.656-1.885-1.885z"/>
    </symbol>
    <symbol id="icon-facebook" viewBox="0 0 32 32">
      <path d="M29.333 16.405C29.333 8.996 23.364 2.99 16 2.99S2.667 8.996 2.667 16.405c0 6.696 4.876 12.245 11.25 13.252v-9.374h-3.385v-3.878h3.385V13.45c0-3.362 1.991-5.219 5.036-5.219 1.459 0 2.985.262 2.985.262v3.301h-1.681c-1.656 0-2.173 1.034-2.173 2.095v2.516h3.698l-.591 3.878h-3.107v9.374c6.374-1.006 11.25-6.556 11.25-13.252z"/>
    </symbol>
    <symbol id="icon-Instagram" viewBox="0 0 32 32">
      <path d="M15.998 6.161c3.206 0 3.585.014 4.846.071 1.172.052 1.804.248 2.226.412.558.216.961.478 1.378.895.422.422.679.82.9 1.378.164.422.361 1.059.412 2.226.056 1.266.071 1.645.071 4.847s-.014 3.585-.071 4.847c-.052 1.172-.248 1.804-.412 2.227a3.702 3.702 0 0 1-.895 1.377c-.422.422-.82.679-1.378.9-.422.164-1.06.361-2.226.412-1.266.056-1.645.071-4.847.071s-3.585-.014-4.847-.071c-1.172-.052-1.804-.248-2.226-.412a3.714 3.714 0 0 1-1.378-.895 3.767 3.767 0 0 1-.9-1.378c-.164-.422-.361-1.06-.412-2.226-.056-1.266-.071-1.645-.071-4.847s.014-3.585.071-4.847c.052-1.172.248-1.804.412-2.226.216-.558.478-.961.895-1.378.422-.422.82-.679 1.378-.9.422-.164 1.059-.361 2.226-.412 1.261-.056 1.641-.071 4.847-.071h.001zm0-2.16c-3.258 0-3.665.014-4.945.071-1.275.056-2.151.262-2.91.558a5.847 5.847 0 0 0-2.127 1.387A5.883 5.883 0 0 0 4.629 8.14c-.295.764-.502 1.636-.558 2.91C4.015 12.335 4 12.742 4 15.999s.014 3.665.071 4.945c.056 1.275.262 2.151.558 2.91a5.86 5.86 0 0 0 1.387 2.127 5.876 5.876 0 0 0 2.123 1.383c.764.295 1.636.502 2.91.558 1.279.056 1.687.071 4.945.071s3.666-.014 4.945-.071c1.275-.056 2.151-.262 2.91-.558.787-.305 1.458-.717 2.123-1.383s1.078-1.336 1.383-2.123c.295-.764.502-1.635.558-2.91.056-1.279.071-1.687.071-4.945s-.014-3.665-.071-4.945c-.056-1.275-.262-2.151-.558-2.91a5.622 5.622 0 0 0-1.373-2.133 5.876 5.876 0 0 0-2.123-1.383c-.764-.295-1.635-.502-2.91-.558-1.284-.061-1.692-.075-4.949-.075L15.999 4z"/>
      <path d="M15.997 9.836a6.164 6.164 0 1 0 6.163 6.163 6.164 6.164 0 0 0-6.163-6.163zm0 10.161a3.998 3.998 0 1 1 0-7.996 3.998 3.998 0 0 1 0 7.996zM23.842 9.592a1.439 1.439 0 1 1-2.877 0 1.439 1.439 0 0 1 2.877 0z"/>
    </symbol>
    <symbol id="icon-linkedin" viewBox="0 0 32 32">
      <path d="M25.75 4H6.25A2.257 2.257 0 0 0 4 6.25v19.5A2.257 2.257 0 0 0 6.25 28h19.5A2.257 2.257 0 0 0 28 25.75V6.25A2.257 2.257 0 0 0 25.75 4zM13 23.5h-3V13h3v10.5zm-1.5-12a1.5 1.5 0 1 1-.001-2.999A1.5 1.5 0 0 1 11.5 11.5zm12 12h-3v-6a1.5 1.5 0 1 0-3 0v6h-3V13h3v1.861c.619-.848 1.565-1.861 2.625-1.861 1.866 0 3.375 1.679 3.375 3.75v6.75z"/>
    </symbol>
    <symbol id="icon-logo" viewBox="0 0 109 32">
      <path d="M19.1.788c.483.24 1.025.928 1.389 1.335 3.125 3.491 4.764 7.937 4.474 12.617-.281 4.529-2.517 8.551-5.875 11.523-.636-.435-1.217-1.053-1.726-1.628-2.852-3.225-4.415-7.757-4.143-12.056.281-4.433 2.547-8.868 5.88-11.79z"/>
      <path d="M32.398 7.127c.009.016.02.031.028.047.178.362.229.937.274 1.339.235 2.09.041 4.186-.695 6.165-1.837 4.945-6.082 8.585-10.777 10.742-.055-.001-.018.004-.103-.045.287-.469.687-.889 1.018-1.33.506-.688.965-1.41 1.373-2.16 1.438-2.646 2.126-5.556 2.123-8.557-.001-.852-.02-1.704-.267-2.526.44-.489.98-.9 1.503-1.297 1.687-1.277 3.388-2.166 5.521-2.379zM5.743 7.148c.253.01.509.043.759.081 1.928.293 3.615 1.32 5.122 2.509.42.332.88.678 1.197 1.113-.801 4.115.261 8.429 2.389 11.988.34.566.707 1.114 1.1 1.645.188.253.411.482.579.747l-.06.077c-3.508-1.5-6.794-4.155-8.909-7.328-2.218-3.329-2.951-6.915-2.178-10.831z"/>
      <path d="M35.831 16.331c.559-.067 1.813-.137 2.282.161.024.071.031.077.033.163.009.328-.205.819-.316 1.126a13.085 13.085 0 0 1-3.699 5.478c-3.292 2.911-7.559 3.955-11.868 3.678-.814-.085-1.653-.142-2.435-.391 3.61-1.111 7.045-3.379 9.533-6.212.612-.697 1.06-1.505 1.655-2.206 1.13-1.33 3.178-1.681 4.815-1.797zM1.341 16.441c1.682-.198 3.965.079 5.351 1.126.824.623 1.32 1.779 2.001 2.567a21.285 21.285 0 0 0 7.795 5.683c.639.273 1.296.559 1.971.725l-1.35.226c-3.931.566-8.004-.137-11.367-2.323-2.29-1.49-3.903-3.532-4.851-6.08-.139-.374-.348-.779-.419-1.168-.042-.227-.005-.377.128-.57.211-.156.486-.154.74-.185zM69.989 13.043c1.31-.011 2.74-.128 4.033.061.833.121 1.678.42 2.185 1.133.372.526.493 1.263.378 1.891-.141.768-.627 1.212-1.243 1.626.148.062.293.131.435.206.545.295.93.805 1.089 1.401.218.814.045 1.654-.361 2.376-.091.139-.2.26-.32.374-1.243 1.179-3.969.952-5.576.937-.309-.003-.716.024-.946-.21a.76.76 0 0 1-.087-.328c-.106-1.726-.01-3.517-.01-5.248-.001-1.226-.123-2.823.037-4.008.123-.154.202-.154.387-.211zm4.388 6.07c-.694-.453-1.863-.322-2.669-.321l.004 2.236c.892.006 1.936.144 2.727-.334.186-.275.373-.684.319-1.026-.039-.248-.175-.42-.382-.555zm-.331-3.977c-.662-.398-1.591-.298-2.335-.294v2.147c.799.006 1.751.124 2.449-.327.188-.269.369-.655.298-.994-.052-.249-.2-.405-.412-.532zM57.774 15.368c.2-.017.401-.006.598.032.599.12.892.561 1.213 1.031.018-.164.03-.342.068-.503a.505.505 0 0 1 .281-.35c.242-.129.763-.138 1.016-.044.185.069.391.23.455.423.188.573.115 6.176.006 6.943a4.048 4.048 0 0 1-.484 1.446c-.411.714-1.11 1.181-1.895 1.394-1.107.299-2.367.204-3.355-.391-.441-.265-.647-.608-.763-1.099.037-.178.081-.351.234-.466.495-.374 1.565.254 2.114.356.473.088.983.04 1.376-.258.648-.489.755-1.392.866-2.137-.434.463-.845.837-1.485.993a2.613 2.613 0 0 1-2.049-.342c-.785-.52-1.224-1.413-1.385-2.319-.196-1.104-.025-2.425.644-3.349.638-.88 1.516-1.204 2.546-1.362zm.118 1.69c-.516.195-.802.433-1.023.948-.273.632-.281 1.549-.014 2.183.141.334.422.686.778.806.234.079.518.044.759.027.425-.152.667-.33.868-.742.31-.634.32-1.529.083-2.191-.137-.385-.409-.763-.794-.929a1.532 1.532 0 0 0-.657-.101zM100.658 15.427c.507-.067 1.007-.044 1.485.154.661.274 1.005.773 1.267 1.409.134-.336.282-.675.52-.954.375-.442.867-.617 1.436-.639.656-.025 1.328.125 1.809.596.316.31.51.725.616 1.15.281 1.133.124 3.566.128 4.845 0 .196.025.815-.128.931-.261.197-1.184.153-1.51.107-.189-.026-.306-.128-.384-.3-.12-.265-.056-.737-.052-1.03.013-.949.246-3.572-.316-4.265a.729.729 0 0 0-.518-.273c-.302-.021-.687.083-.907.299-.779.763-.52 3.475-.514 4.541.002.215.01.451-.016.665-.013.094-.046.204-.132.253-.332.19-1.139.162-1.505.076-.191-.045-.272-.109-.34-.294-.112-.307-.049-.761-.044-1.085.016-.951.242-3.316-.241-4.029a.9.9 0 0 0-.616-.386c-.289-.047-.591-.009-.826.177-.946.747-.688 3.365-.683 4.447.001.26.053.632-.007.875-.024.101-.054.163-.141.22-.305.2-1.13.157-1.493.085-.153-.03-.251-.124-.317-.263-.093-.197-.121-5.887-.086-6.451.01-.157.042-.324.113-.466a.728.728 0 0 1 .438-.361c.45-.145 1.012.016 1.41.237.096.356.027.821.012 1.192.047-.094.094-.189.143-.282.352-.679.682-.956 1.399-1.184zM92.473 15.457a3.829 3.829 0 1 1 .16 7.653 3.829 3.829 0 0 1-.16-7.652zm.436 1.696c-.223-.066-.466-.051-.694-.03-.563.25-.869.537-1.087 1.125-.261.703-.218 1.686.115 2.357.18.361.459.655.847.785.266.089.516.104.789.04.54-.226.863-.514 1.084-1.067.278-.693.275-1.621-.044-2.3-.2-.425-.555-.774-1.01-.909zM50.044 15.468a3.827 3.827 0 1 1 .345 7.646 3.827 3.827 0 0 1-.345-7.646zm.596 1.705c-.244-.084-.497-.083-.75-.051-.565.279-.887.57-1.102 1.188-.244.699-.209 1.698.143 2.354.192.358.482.62.874.74.24.074.513.08.758.022.538-.224.855-.513 1.071-1.065.275-.7.252-1.625-.065-2.309-.186-.402-.504-.732-.928-.878zM83.895 15.51a3.826 3.826 0 0 1 4.166 5.185 3.824 3.824 0 1 1-4.167-5.185zm.313 1.609c-.567.241-.894.514-1.123 1.101-.269.688-.242 1.642.076 2.311.192.404.519.736.951.873.216.069.462.068.685.041.566-.239.895-.506 1.129-1.094.272-.683.268-1.625-.049-2.292-.188-.396-.508-.731-.927-.88-.237-.084-.493-.081-.74-.061zM64.78 15.431c.479-.057.94-.048 1.412.062.716.166 1.317.583 1.682 1.225.195.344.309.721.363 1.112.084.603.131 4.421-.007 4.946-.115.147-.231.201-.41.24-.306.065-.977.103-1.224-.126-.216-.2-.173-.616-.175-.885-.359.53-.721.957-1.373 1.12-.728.181-1.404-.031-2.031-.393-.268-.247-.472-.5-.587-.85-.194-.59-.131-1.386.171-1.929.733-1.318 2.459-1.238 3.721-1.61l.079-.025c-.051-.158-.101-.319-.167-.472-.714-1.647-2.495.153-3.356-.3a.715.715 0 0 1-.343-.464c-.059-.251.008-.413.145-.62.462-.705 1.329-.883 2.101-1.03zm1.535 4.399c-.525.144-1.509.303-1.822.779a.587.587 0 0 0-.044.53c.047.121.138.226.219.326.542.037.882-.003 1.296-.38.251-.229.482-.597.47-.952-.003-.088-.027-.178-.047-.263l-.071-.041zM43.377 16.848c.188-.597 1.65-3.454 2.116-3.722.242-.139 1.534-.161 1.794-.042.166.076.185.121.26.277-.133.74-1.767 3.222-2.251 4.032l-.849 1.412c.003.849.153 3.44-.143 4.055a.73.73 0 0 1-.307.154c-.399.093-1.192.066-1.544-.156-.272-.358-.13-3.333-.129-3.991-.434-.694-3.236-5.168-3.162-5.595.093-.133.152-.166.302-.225.473-.014 1.434-.139 1.825.098.507.308 1.901 3.076 2.089 3.705zM78.076 13.044c.496-.013 1.307-.137 1.735.119.12.816.073 1.681.075 2.504l.005 3.814c0 .996.11 2.194-.019 3.172-.025.195-.145.258-.287.37-.516.017-1.311.145-1.736-.191-.1-.382-.163-9.187-.067-9.534.046-.165.154-.184.294-.254zM19.303 26.808a11.89 11.89 0 0 0 2.089.554c1.236.2 2.672.142 3.782.785.82.476 1.66 1.589 1.891 2.512.042.169.03.183-.057.324-.858.309-1.692.236-2.546-.044-2.057-.673-4.154-2.172-5.161-4.132zM18.917 26.813c.043-.004.085.019.127.031-.002.02-.002.04-.006.059-.106.438-1.799 2.223-2.19 2.532-1.351 1.067-3.357 1.914-5.101 1.706-.047-.01-.111-.023-.154-.042-.094-.043-.153-.078-.178-.18-.066-.273.089-.589.213-.826.399-.763 1.025-1.659 1.808-2.072.966-.508 2.391-.506 3.465-.697.688-.122 1.35-.309 2.017-.512z"/>
    </symbol>
    <symbol id="icon-menu" viewBox="0 0 32 32">
      <path d="M5.333 8h21.333v2.667H5.333V8zm0 6.667h21.333v2.667H5.333v-2.667zm0 6.666h21.333V24H5.333v-2.667z"/>
    </symbol>
    <symbol id="icon-twitter" viewBox="0 0 32 32">
      <path d="M22.901 5.657h3.68l-8.04 9.037L28 26.991h-7.406l-5.801-7.458-6.637 7.458H4.474l8.6-9.666L4 5.657h7.594l5.243 6.817 6.064-6.817zM21.61 24.824h2.039L10.486 7.709H8.298L21.61 24.824z"/>
    </symbol>
    <symbol id="icon-youtube" viewBox="0 0 32 32">
      <path d="M28.791 9.604a3.345 3.345 0 0 0-2.35-2.354C24.353 6.677 16 6.667 16 6.667s-8.352-.009-10.441.539a3.416 3.416 0 0 0-2.354 2.371c-.551 2.088-.556 6.419-.556 6.419s-.005 4.352.541 6.419a3.341 3.341 0 0 0 2.351 2.353c2.109.573 10.44.583 10.44.583s8.353.009 10.441-.537a3.356 3.356 0 0 0 2.356-2.35c.552-2.087.556-6.416.556-6.416s.027-4.353-.543-6.441zM13.328 20.007l.007-8 6.943 4.007-6.949 3.993z"/>
    </symbol>
  </defs>
</svg>
